<svg width="30" height="30" viewBox="0 0 30 30" fill="none" xmlns="http://www.w3.org/2000/svg">
                    <path d="M26.7777 11.9192L19.4445 5.87747C18.7722 5.3124 17.9019 5 17 5C16.0981 5 15.2279 5.3124 14.5556 5.87747L7.22233 11.9192C6.83412 12.2455 6.52432 12.6458 6.31358 13.0934C6.10284 13.541 5.99598 14.0257 6.00012 14.5151V24.5541C6.00012 25.468 6.38642 26.3445 7.07405 26.9907C7.76168 27.637 8.6943 28 9.66676 28H24.3333C25.3058 28 26.2384 27.637 26.926 26.9907C27.6137 26.3445 28 25.468 28 24.5541V14.5036C28.0024 14.0161 27.8947 13.5337 27.684 13.0882C27.4733 12.6427 27.1644 12.2443 26.7777 11.9192ZM19.4445 25.7027H14.5556V19.9596C14.5556 19.655 14.6844 19.3628 14.9136 19.1474C15.1428 18.932 15.4537 18.811 15.7778 18.811H18.2222C18.5464 18.811 18.8573 18.932 19.0865 19.1474C19.3157 19.3628 19.4445 19.655 19.4445 19.9596V25.7027ZM25.5555 24.5541C25.5555 24.8588 25.4268 25.1509 25.1976 25.3663C24.9683 25.5817 24.6575 25.7027 24.3333 25.7027H21.8889V19.9596C21.8889 19.0457 21.5026 18.1692 20.815 17.523C20.1273 16.8768 19.1947 16.5137 18.2222 16.5137H15.7778C14.8054 16.5137 13.8727 16.8768 13.1851 17.523C12.4975 18.1692 12.1112 19.0457 12.1112 19.9596V25.7027H9.66676C9.34261 25.7027 9.03173 25.5817 8.80252 25.3663C8.57331 25.1509 8.44454 24.8588 8.44454 24.5541V14.5036C8.44476 14.3406 8.48193 14.1794 8.55359 14.0309C8.62524 13.8823 8.72972 13.7498 8.8601 13.6422L16.1934 7.6119C16.4164 7.42775 16.7032 7.32619 17 7.32619C17.2969 7.32619 17.5837 7.42775 17.8067 7.6119L25.14 13.6422C25.2704 13.7498 25.3748 13.8823 25.4465 14.0309C25.5181 14.1794 25.5553 14.3406 25.5555 14.5036V24.5541Z" fill="white"/>
                  </svg>